<?xml version="1.0" encoding="UTF-8" standalone="no"?>
<!-- Created with Inkscape (http://www.inkscape.org/) -->

<svg
   xmlns:dc="http://purl.org/dc/elements/1.1/"
   xmlns:cc="http://creativecommons.org/ns#"
   xmlns:rdf="http://www.w3.org/1999/02/22-rdf-syntax-ns#"
   xmlns:svg="http://www.w3.org/2000/svg"
   xmlns="http://www.w3.org/2000/svg"
   xmlns:sodipodi="http://sodipodi.sourceforge.net/DTD/sodipodi-0.dtd"
   xmlns:inkscape="http://www.inkscape.org/namespaces/inkscape"
   width="104.94891mm"
   height="104.94891mm"
   viewBox="0 0 371.8662 371.8662"
   id="svg4162"
   version="1.1"
   inkscape:version="0.91 r13725"
   sodipodi:docname="o.svg">
  <defs
     id="defs4164" />
  <sodipodi:namedview
     id="base"
     pagecolor="#ff2a3e"
     bordercolor="#666666"
     borderopacity="1.0"
     inkscape:pageopacity="0"
     inkscape:pageshadow="2"
     inkscape:zoom="1.4"
     inkscape:cx="129.61526"
     inkscape:cy="203.68079"
     inkscape:document-units="px"
     inkscape:current-layer="layer1"
     showgrid="true"
     fit-margin-top="10"
     fit-margin-left="10"
     fit-margin-right="10"
     fit-margin-bottom="10"
     inkscape:window-width="1920"
     inkscape:window-height="1056"
     inkscape:window-x="0"
     inkscape:window-y="24"
     inkscape:window-maximized="1"
     showguides="false">
    <inkscape:grid
       type="xygrid"
       id="grid4170"
       originx="5.9331006"
       originy="5.9331398" />
  </sodipodi:namedview>
  <metadata
     id="metadata4167">
    <rdf:RDF>
      <cc:Work
         rdf:about="">
        <dc:format>image/svg+xml</dc:format>
        <dc:type
           rdf:resource="http://purl.org/dc/dcmitype/StillImage" />
        <dc:title></dc:title>
      </cc:Work>
    </rdf:RDF>
  </metadata>
  <g
     inkscape:label="Layer 1"
     inkscape:groupmode="layer"
     id="layer1"
     transform="translate(5.9331014,-686.42914)">
    <path
       style="fill:#ffffff;fill-rule:evenodd;stroke:none;stroke-width:1px;stroke-linecap:butt;stroke-linejoin:miter;stroke-opacity:1;fill-opacity:1"
       d="M 185.93359 35.933594 A 150.00005 150.00005 0 0 0 35.933594 185.93359 A 150.00005 150.00005 0 0 0 185.93359 335.93359 A 150.00005 150.00005 0 0 0 335.93359 185.93359 A 150.00005 150.00005 0 0 0 185.93359 35.933594 z M 187.00391 66.646484 A 118.9286 118.9286 0 0 1 305.93359 185.57617 A 118.9286 118.9286 0 0 1 187.00391 304.50391 A 118.9286 118.9286 0 0 1 68.076172 185.57617 A 118.9286 118.9286 0 0 1 187.00391 66.646484 z "
       transform="translate(-5.9331014,686.42914)"
       id="path4172" />
  </g>
</svg>
